<?xml version="1.0" ?><!DOCTYPE svg  PUBLIC '-//W3C//DTD SVG 1.1//EN'  'http://www.w3.org/Graphics/SVG/1.1/DTD/svg11.dtd'><svg height="128px" id="Layer_1" style="enable-background:new 0 0 128 128;" version="1.1" viewBox="0 0 128 128" width="128px" xml:space="preserve" xmlns="http://www.w3.org/2000/svg" xmlns:xlink="http://www.w3.org/1999/xlink"><style type="text/css">
	.st0{fill:#7AC943;}
	.st1{opacity:0.21;clip-path:url(#SVGID_2_);fill:#006032;}
	.st2{fill:#5C5157;}
	.st3{clip-path:url(#SVGID_4_);fill:#4C383E;}
	.st4{fill:#FFFFFF;}
	.st5{fill:#E1DBCA;}
	.st6{fill:#AAA884;}
	.st7{fill:#3B9C00;}
	.st8{opacity:0.6;fill:#A1BFC8;}
	.st9{opacity:0.21;clip-path:url(#SVGID_6_);fill:#006032;}
	.st10{fill:#F54F33;}
	.st11{fill:#A1BFC8;}
	.st12{fill:#81A1A6;}
	.st13{fill:#C9D8E0;}
	.st14{fill:#FFB202;}
	.st15{fill:#EF901E;}
	.st16{fill:#FFD454;}
	.st17{fill:#F1D2AE;}
	.st18{fill:#FFE6CB;}
	.st19{fill:#DFB98A;}
	.st20{fill:#58505B;}
</style><g><circle class="st0" cx="64" cy="64" r="64"/><g><defs><circle cx="64" cy="64" id="SVGID_1_" r="64"/></defs><clipPath id="SVGID_2_"><use style="overflow:visible;" xlink:href="#SVGID_1_"/></clipPath><polygon class="st1" points="29.9,101.2 56.7,128 128,128 128,56.6 98.4,26.8 83.3,25.8 80.2,22.8 79,22.6 69.4,13 60.8,13.2     58.7,16.7 57.7,27.9   "/></g><path class="st2" d="M93.9,102.8H34.1c-3.4,0-6.2-2.8-6.2-6.2V31.1c0-3.4,2.8-6.2,6.2-6.2h59.8c3.4,0,6.2,2.8,6.2,6.2v65.5   C100.1,100,97.3,102.8,93.9,102.8z"/><g><defs><path d="M93.9,102.8H34.1c-3.4,0-6.2-2.8-6.2-6.2V31.1c0-3.4,2.8-6.2,6.2-6.2h59.8c3.4,0,6.2,2.8,6.2,6.2v65.5     C100.1,100,97.3,102.8,93.9,102.8z" id="SVGID_3_"/></defs><clipPath id="SVGID_4_"><use style="overflow:visible;" xlink:href="#SVGID_3_"/></clipPath><polygon class="st3" points="82.7,24.8 89.6,31.6 93,31.8 101,39.8 101,103.5 42.4,103.5 35.2,96.2 76.6,23.8   "/></g><path class="st4" d="M91.4,96.8H36.6c-1.1,0-2-0.9-2-2V32.9c0-1.1,0.9-2,2-2h54.8c1.1,0,2,0.9,2,2v61.9   C93.4,95.9,92.5,96.8,91.4,96.8z"/><path class="st5" d="M78.2,21.9H71v-5c0-1.7-0.8-3.3-2.2-4.3c-5.7-4-11.8,0-11.8,5.4v4h-7.2c-1.5,0-2.8,1.2-2.8,2.8v6.5   c0,1.5,1.2,2.8,2.8,2.8h28.5c1.5,0,2.8-1.2,2.8-2.8v-6.5C81,23.2,79.8,21.9,78.2,21.9z M60.8,20.5c-2.7-4.1,1.7-8.4,5.8-5.8   c0.2,0.2,0.4,0.4,0.6,0.6c2.7,4.1-1.7,8.4-5.8,5.8C61.2,20.9,61,20.7,60.8,20.5z"/><path class="st6" d="M76.9,24.9H51.1c-0.6,0-1.1,0.5-1.1,1.1v3.8c0,0.6,0.5,1.1,1.1,1.1h25.8c0.6,0,1.1-0.5,1.1-1.1V26   C78,25.4,77.5,24.9,76.9,24.9z"/><g><path class="st7" d="M48.5,60.6h-5.3c-0.7,0-1.3-0.6-1.3-1.3v-5.3c0-0.7,0.6-1.3,1.3-1.3h5.3c0.7,0,1.3,0.6,1.3,1.3v5.3    C49.8,60,49.2,60.6,48.5,60.6z"/><path class="st7" d="M84.4,60.6H56.3c-0.8,0-1.5-0.7-1.5-1.5V59c0-0.8,0.7-1.5,1.5-1.5h28.1c0.8,0,1.5,0.7,1.5,1.5v0.1    C85.8,59.9,85.2,60.6,84.4,60.6z"/><path class="st7" d="M84.4,55.6H56.3c-0.8,0-1.5-0.7-1.5-1.5V54c0-0.8,0.7-1.5,1.5-1.5h28.1c0.8,0,1.5,0.7,1.5,1.5v0.1    C85.8,54.9,85.2,55.6,84.4,55.6z"/></g><g><path class="st8" d="M48.5,46.2h-5.3c-0.7,0-1.3-0.6-1.3-1.3v-5.3c0-0.7,0.6-1.3,1.3-1.3h5.3c0.7,0,1.3,0.6,1.3,1.3v5.3    C49.8,45.6,49.2,46.2,48.5,46.2z"/><path class="st8" d="M48.5,75h-5.3c-0.7,0-1.3-0.6-1.3-1.3v-5.3c0-0.7,0.6-1.3,1.3-1.3h5.3c0.7,0,1.3,0.6,1.3,1.3v5.3    C49.8,74.4,49.2,75,48.5,75z"/><path class="st8" d="M48.5,89.4h-5.3c-0.7,0-1.3-0.6-1.3-1.3v-5.3c0-0.7,0.6-1.3,1.3-1.3h5.3c0.7,0,1.3,0.6,1.3,1.3V88    C49.8,88.8,49.2,89.4,48.5,89.4z"/><path class="st8" d="M84.4,41.2H56.3c-0.8,0-1.5-0.7-1.5-1.5v-0.1c0-0.8,0.7-1.5,1.5-1.5h28.1c0.8,0,1.5,0.7,1.5,1.5v0.1    C85.8,40.5,85.2,41.2,84.4,41.2z"/><path class="st8" d="M84.4,46.2H56.3c-0.8,0-1.5-0.7-1.5-1.5v-0.1c0-0.8,0.7-1.5,1.5-1.5h28.1c0.8,0,1.5,0.7,1.5,1.5v0.1    C85.8,45.5,85.2,46.2,84.4,46.2z"/><path class="st8" d="M84.4,70H56.3c-0.8,0-1.5-0.7-1.5-1.5v-0.1c0-0.8,0.7-1.5,1.5-1.5h28.1c0.8,0,1.5,0.7,1.5,1.5v0.1    C85.8,69.3,85.2,70,84.4,70z"/><path class="st8" d="M84.4,75H56.3c-0.8,0-1.5-0.7-1.5-1.5v-0.1c0-0.8,0.7-1.5,1.5-1.5h28.1c0.8,0,1.5,0.7,1.5,1.5v0.1    C85.8,74.3,85.2,75,84.4,75z"/><path class="st8" d="M84.4,89.4H56.3c-0.8,0-1.5-0.7-1.5-1.5v-0.1c0-0.8,0.7-1.5,1.5-1.5h28.1c0.8,0,1.5,0.7,1.5,1.5v0.1    C85.8,88.7,85.2,89.4,84.4,89.4z"/><path class="st8" d="M84.4,84.4H56.3c-0.8,0-1.5-0.7-1.5-1.5v-0.1c0-0.8,0.7-1.5,1.5-1.5h28.1c0.8,0,1.5,0.7,1.5,1.5v0.1    C85.8,83.7,85.2,84.4,84.4,84.4z"/></g><g><defs><circle cx="64" cy="64" id="SVGID_5_" r="64"/></defs><clipPath id="SVGID_6_"><use style="overflow:visible;" xlink:href="#SVGID_5_"/></clipPath><polygon class="st9" points="58.8,106.4 80.5,128 128,128 128,92.9 101.2,66.1   "/></g><g><path class="st10" d="M98.3,63.2l3.6,3.6c1.7,1.7,1.7,4.5,0,6.2l-3.1,3.1L89,66.3l3.1-3.1C93.8,61.5,96.6,61.5,98.3,63.2z"/><rect class="st11" height="22.6" transform="matrix(-0.7071 -0.7071 0.7071 -0.7071 91.3204 195.8313)" width="14" x="79.2" y="67.7"/><rect class="st12" height="5.4" transform="matrix(-0.7071 -0.7071 0.7071 -0.7071 109.3106 197.6872)" width="4.7" x="93.3" y="73.5"/><rect class="st13" height="5.4" transform="matrix(-0.7071 -0.7071 0.7071 -0.7071 102.7291 181.7981)" width="4.7" x="86.7" y="66.9"/><path class="st14" d="M70,87.8l7.4,7.4c0.7,0.7,1.8,0.7,2.5,0l15.5-15.5l-9.9-9.9L70,85.3C69.3,86,69.3,87.1,70,87.8z"/><path class="st15" d="M75.4,93.2l2,2c0.7,0.7,1.8,0.7,2.5,0l15.5-15.5L92,76.5L75.4,93.2z"/><path class="st16" d="M70,87.8l2,2l16.7-16.7l-3.3-3.3L70,85.3C69.3,86,69.3,87.1,70,87.8z"/><g><g><path class="st17" d="M69.9,87.7l2.2,2.2c1.2-1.2,2.9-1.4,3.8-0.5c0.9,0.9,0.7,2.6-0.5,3.8l2.2,2.2c0.5,0.5,0.2,1.6-0.6,2      l-13.7,6.8L61,102l6.8-13.7C68.3,87.5,69.4,87.2,69.9,87.7z"/></g><g><path class="st18" d="M70.9,84.5c0.9,0.9,2.3,4.2,1.2,5.4l-10.3,12.9L61,102l7.2-14.4c0.4-0.7,0.8-1.4,1.4-1.9      c0.1-0.1,0.2-0.2,0.3-0.3C70.2,85.1,70.6,84.8,70.9,84.5z"/></g><g><path class="st19" d="M80.8,94.3c-0.9-0.9-4.2-2.3-5.4-1.2l-12.9,10.3l0.7,0.7L77.6,97c0.7-0.4,1.4-0.8,1.9-1.4      c0.1-0.1,0.2-0.2,0.3-0.3C80.1,95,80.4,94.7,80.8,94.3z"/></g></g><g><path class="st20" d="M61,102l2.1,2.1l-3.7,2.2l0,0c-0.2,0.2-0.5,0.2-0.7,0.1c-0.2-0.2-0.1-0.4,0.1-0.7l0,0     C59.6,104.5,60.3,103.3,61,102z"/></g></g></g></svg>